<svg xmlns="http://www.w3.org/2000/svg" width="25" height="21" viewBox="0 0 25 21">
    <path fill="#6C6C6C" fill-rule="nonzero" d="M25 2.402c-.92.406-1.907.682-2.944.806A5.126 5.126 0 0 0 24.309.375a10.321 10.321 0 0 1-3.257 1.243A5.124 5.124 0 0 0 17.31 0a5.125 5.125 0 0 0-4.996 6.289A14.567 14.567 0 0 1 1.746.936 5.091 5.091 0 0 0 1.05 3.51c0 1.777.794 3.345 2.17 4.263-.84-.027-2.434-.257-2.434-.641v.064c0 2.48 1.88 4.551 4.225 5.022a4.722 4.722 0 0 1-2.234.087 5.151 5.151 0 0 0 4.804 3.558 10.28 10.28 0 0 1-6.362 2.193c-.415 0-.819-.026-1.22-.072a14.54 14.54 0 0 0 7.863 2.301c9.432 0 14.59-7.805 14.59-14.573 0-.223-.004-.444-.015-.663a10.42 10.42 0 0 0 2.559-2.652l.003.004z"/>
</svg>
