<?xml version="1.0" encoding="UTF-8"?>
<svg width="160px" height="40px" viewBox="0 0 160 40" version="1.1" xmlns="http://www.w3.org/2000/svg" xmlns:xlink="http://www.w3.org/1999/xlink">
    <!-- Generator: Sketch 59 (86127) - https://sketch.com -->
    <title>horizontal_trans_web_header_2x</title>
    <desc>Created with Sketch.</desc>
    <g id="新颜色调整logo" stroke="none" stroke-width="1" fill="none" fill-rule="evenodd">
        <g id="Group-9备份-2">
            <g id="Group-5-Copy">
                <g id="Group-3-Copy-3" transform="translate(1.909755, 0.909239)">
                    <path d="M65.8356615,29.3532983 L61.452617,29.3532983 L61.452617,19.9298078 L53.2996432,19.9298078 L53.2996432,29.3532983 L48.9164559,29.3532983 L48.9164559,8.35532028 L53.2996432,8.35532028 L53.2996432,16.2765568 L61.452617,16.2765568 L61.452617,8.35532028 L65.8356615,8.35532028 L65.8356615,29.3532983 L65.8356615,29.3532983 Z M103.493405,16.8571395 C101.002251,16.8571395 99.7563164,18.4275538 99.7563164,21.568813 C99.7563164,24.7326009 101.002251,26.3142079 103.493405,26.3142079 C105.98456,26.3142079 107.230352,24.7326009 107.230352,21.568813 C107.230352,18.4275538 105.98456,16.8571395 103.493405,16.8571395 L103.493405,16.8571395 Z M103.493405,13.3745046 C104.716494,13.3745046 105.81479,13.5679365 106.788863,13.9549437 C107.762365,14.341951 108.589799,14.8935475 109.268738,15.6110249 C109.948248,16.3276412 110.468839,17.1929188 110.831796,18.2055663 C111.194182,19.2183573 111.375375,20.3396308 111.375375,21.568813 C111.375375,22.7979951 111.188185,23.9186947 110.814519,24.9320596 C110.44071,25.9448506 109.913979,26.8099847 109.235041,27.5267446 C108.555388,28.2433609 107.728811,28.795675 106.754738,29.1826822 C105.781093,29.5696895 104.693649,29.7631214 103.493405,29.7631214 C102.247471,29.7631214 101.13247,29.5636627 100.146688,29.1651758 C99.1617632,28.7674064 98.3293318,28.209783 97.6496793,27.4923057 C96.970598,26.7756893 96.4492931,25.9104117 96.086907,24.8977642 C95.7246636,23.8849732 95.5436134,22.7751793 95.5436134,21.568813 C95.5436134,20.3396308 95.7300894,19.2243841 96.1037555,18.2223553 C96.4775644,17.2211874 97.0041522,16.3622236 97.6838047,15.6447463 C98.3634572,14.927843 99.1954603,14.3705066 100.180956,13.9718762 C101.165881,13.5733893 102.270317,13.3745046 103.493405,13.3745046 L103.493405,13.3745046 Z M89.806547,8.11654383 L93.8837478,8.11654383 L93.8837478,29.3532983 L89.806547,29.3532983 L89.806547,8.11654383 Z M83.7299399,8.11654383 L87.8071408,8.11654383 L87.8071408,29.3532983 L83.7299399,29.3532983 L83.7299399,8.11654383 Z M77.8909257,20.066559 C77.8459487,18.9055372 77.5118338,18.0465733 76.8891522,17.48895 C76.2658995,16.9313266 75.5466958,16.6520844 74.7315412,16.6520844 C73.8935412,16.6520844 73.1803344,16.9481156 72.5912071,17.5400344 C72.0022226,18.1315227 71.6626819,18.973554 71.5721568,20.066559 L77.8909257,20.066559 L77.8909257,20.066559 Z M74.8334891,13.3745046 C79.6802964,13.3745046 82.1036287,16.4701322 82.1036287,22.6612439 L71.4359407,22.6612439 C71.5043343,23.8107861 71.843875,24.7386277 72.4551338,25.4384551 C73.0669638,26.138426 73.8821184,26.484824 74.9011688,26.484824 C75.5581186,26.484824 76.1471031,26.3318579 76.6678368,26.0183203 C77.1891417,25.7055002 77.5286823,25.2900808 77.6877439,24.778376 L81.9003041,24.778376 C81.4246901,26.3716061 80.5866901,27.6007882 79.3857328,28.4652049 C78.1854894,29.3301956 76.758362,29.7631214 75.1052073,29.7631214 C69.9411336,29.7631214 67.359311,26.9407091 67.359311,21.2957411 C67.359311,18.8824344 68.004838,16.9595952 69.2957494,15.5255016 C70.5865179,14.0911209 72.4330023,13.3745046 74.8334891,13.3745046 Z M124.58662,8.35532028 L124.58662,12.0428667 L118.267708,12.0428667 L118.267708,29.3532983 L113.884521,29.3532983 L113.884521,12.0428667 L107.60002,12.0428667 L107.60002,8.35532028 L124.58662,8.35532028 Z M151.717318,19.5204152 L156.779444,29.3532983 L152.193075,29.3532983 L148.795383,22.3535897 L146.791408,24.4364263 L146.791408,29.3532983 L142.714064,29.3532983 L142.714064,8.11654383 L146.791408,8.11654383 L146.791408,19.7246093 L151.886945,13.7843276 L156.915517,13.7843276 L151.717318,19.5204152 L151.717318,19.5204152 Z M136.6376,8.11654383 L140.714801,8.11654383 L140.714801,29.3532983 L136.6376,29.3532983 L136.6376,8.11654383 Z M130.561707,21.7394291 C130.153916,22.0808048 129.440566,22.3535897 128.421373,22.5587882 C127.017234,22.8317165 126.065863,23.1561598 125.567404,23.5316874 C125.068802,23.907215 124.820072,24.4249467 124.820072,25.0850258 C124.820072,26.2463346 125.431759,26.8267737 126.654277,26.8267737 C127.175581,26.8267737 127.679467,26.7525866 128.166646,26.6050732 C128.653683,26.4565554 129.07818,26.2348549 129.440566,25.9386803 C129.802952,25.6426492 130.091376,25.2671215 130.306695,24.8119539 C130.522156,24.3570733 130.62953,23.8336019 130.62953,23.2416831 C130.62953,23.0597308 130.624104,22.8094747 130.612824,22.4906278 C130.601258,22.1717809 130.583839,21.9215248 130.561707,21.7394291 L130.561707,21.7394291 Z M128.047707,13.3745046 C130.244441,13.3745046 131.89217,13.8978325 132.990465,14.9449189 C134.089475,15.9920053 134.638337,17.5172186 134.638337,19.5204152 L134.638337,29.3532983 L130.833425,29.3532983 C130.787734,29.1712026 130.7429,28.9777707 130.697209,28.7727157 C130.652232,28.5676607 130.618107,28.3405074 130.595261,28.0896773 C130.097373,28.6135792 129.451989,29.0060393 128.659109,29.2676315 C127.866514,29.5299412 126.948983,29.6606656 125.906802,29.6606656 C124.344315,29.6606656 123.092955,29.2736583 122.153007,28.4996438 C121.213059,27.7256293 120.743442,26.6561576 120.743442,25.2900808 C120.743442,24.2208961 120.918638,23.3670981 121.270173,22.7292608 C121.621136,22.0921409 122.113456,21.5916287 122.747417,21.2270068 C123.381521,20.8628153 124.134851,20.5898869 125.007262,20.4077912 C125.878673,20.2258389 126.824618,20.066559 127.843811,19.9298078 C128.659109,19.8157289 129.299067,19.6337767 129.763401,19.3835206 C130.227735,19.133408 130.459759,18.7799787 130.459759,18.324811 C130.459759,17.7336097 130.188041,17.2892043 129.644462,16.9931731 C129.100597,16.6978595 128.500618,16.5496287 127.843811,16.5496287 C127.119324,16.5496287 126.512777,16.759993 126.026312,17.1812957 C125.539132,17.6021679 125.249995,18.1658181 125.159469,18.8710983 L121.252753,18.8710983 C121.388826,17.1415475 121.97724,15.7931206 123.019278,14.8256742 C124.061317,13.8579408 125.737031,13.3745046 128.047707,13.3745046 L128.047707,13.3745046 Z" id="HelloTalk" fill="#000000"></path>
                    <g id="83.5pt备份">
                        <path d="M12.7388681,1.24039288 C15.1479184,1.24039288 17.1002166,2.8477106 17.1002166,4.80780582 C17.1002166,6.24071669 16.1109835,7.46196105 14.7212992,7.97883955 C14.396577,8.16038123 13.0786568,9.89612582 12.7388681,9.96073563 C12.4347631,10.0281201 13.1044284,8.41921686 12.7388681,8.37521877 C10.3298177,8.41921686 8.37751954,6.81229552 8.37751954,4.80780582 C8.37751954,2.8477106 10.3298177,1.24039288 12.7388681,1.24039288" id="Fill-3" fill="#33BEEE"></path>
                        <path d="M35.9333125,14.6512891 C36.7361971,14.6512891 37.3872275,15.1871938 37.3872275,15.8404267 C37.3872275,16.3180637 37.057351,16.7251451 36.5942551,16.8975701 C36.4860143,16.9578197 36.0467076,17.5365334 35.9333125,17.5579379 C35.831812,17.5805315 36.0550338,17.0442304 35.9333125,17.0295644 C35.1304279,17.0442304 34.4793975,16.5087221 34.4793975,15.8404267 C34.4793975,15.1871938 35.1304279,14.6512891 35.9333125,14.6512891" id="Fill-5" fill="#47CA54"></path>
                        <path d="M4.41265724,7.91379372 C6.20081014,7.91379372 7.64996731,9.10649878 7.64996731,10.5616069 C7.64996731,11.6254887 6.91567481,12.5316116 5.88401764,12.915703 C5.6433505,13.0500756 4.66482249,14.3383081 4.41265724,14.3866663 C4.18705658,14.4366101 4.68385383,13.2423195 4.41265724,13.2098164 C2.62450435,13.2423195 1.17534718,12.0496145 1.17534718,10.5616069 C1.17534718,9.10649878 2.62450435,7.91379372 4.41265724,7.91379372" id="Fill-7" fill="#FF9E49"></path>
                        <path d="M17.2984597,25.7444767 C18.4328068,25.7444767 19.3522584,26.5011647 19.3522584,27.4243319 C19.3522584,28.0993657 18.8863871,28.6745119 18.2317883,28.9178887 C18.0791411,29.0035066 17.4582437,29.8204442 17.2984597,29.8509654 C17.1553282,29.8826757 17.4705347,29.1251951 17.2984597,29.1045833 C16.1641126,29.1251951 15.244661,28.3685071 15.244661,27.4243319 C15.244661,26.5011647 16.1641126,25.7444767 17.2984597,25.7444767" id="Fill-9" fill="#47CA54"></path>
                        <path d="M16.9019735,30.2227295 C17.2441411,30.2227295 17.5216815,30.4510439 17.5216815,30.7296985 C17.5216815,30.9334374 17.3809288,31.1066551 17.1834787,31.1803817 C17.1374863,31.2061463 16.9503448,31.4530906 16.9019735,31.4622073 C16.8587565,31.471324 16.9539132,31.2430096 16.9019735,31.2370639 C16.5598059,31.2430096 16.2822655,31.0146952 16.2822655,30.7296985 C16.2822655,30.4510439 16.5598059,30.2227295 16.9019735,30.2227295" id="Fill-11" fill="#F92D6F"></path>
                        <path d="M15.4643144,33.6693657 C16.2033647,33.6693657 16.8024554,34.1624614 16.8024554,34.7637687 C16.8024554,35.2033532 16.498747,35.5779316 16.0725243,35.7364833 C15.9730062,35.7919764 15.5685903,36.32471 15.4643144,36.344529 C15.3711401,36.3651407 15.57652,35.8716486 15.4643144,35.8577753 C14.7256606,35.8716486 14.1265699,35.3785529 14.1265699,34.7637687 C14.1265699,34.1624614 14.7256606,33.6693657 15.4643144,33.6693657" id="Fill-13" fill="#33BEEE"></path>
                        <path d="M14.1265699,36.1207729 C14.4556534,36.1207729 14.7220922,36.340367 14.7220922,36.607923 C14.7220922,36.8041307 14.5872869,36.97061 14.39737,37.0411655 C14.3529635,37.0661374 14.1729588,37.3031721 14.1265699,37.3118925 C14.0849388,37.3210092 14.1765271,37.1014151 14.1265699,37.0954694 C13.7974863,37.1014151 13.5310476,36.881821 13.5310476,36.607923 C13.5310476,36.340367 13.7974863,36.1207729 14.1265699,36.1207729" id="Fill-15" fill="#F92D6F"></path>
                        <path d="M28.7965604,13.0930431 C29.6938087,13.0930431 30.4209645,13.6915757 30.4209645,14.4217062 C30.4209645,14.9552327 30.0522323,15.410276 29.5348177,15.6029163 C29.4138894,15.6703008 28.9230395,16.3167953 28.7965604,16.3409744 C28.6831653,16.3659463 28.9325552,15.7666209 28.7965604,15.7503694 C27.899312,15.7666209 27.1721563,15.1680883 27.1721563,14.4217062 C27.1721563,13.6915757 27.899312,13.0930431 28.7965604,13.0930431" id="Fill-17" fill="#FF9E49"></path>
                        <path d="M19.1074281,29.3835154 C19.5709205,29.3835154 19.9467895,29.6926912 19.9467895,30.0696478 C19.9467895,30.3459241 19.7564761,30.580977 19.4888479,30.6800718 C19.4265996,30.7149532 19.1728484,31.0491009 19.1074281,31.0613886 C19.0491447,31.0748655 19.1780027,30.764897 19.1074281,30.756573 C18.6439357,30.764897 18.2680668,30.4557212 18.2680668,30.0696478 C18.2680668,29.6926912 18.6439357,29.3835154 19.1074281,29.3835154" id="Fill-19" fill="#47CA54"></path>
                        <path d="M2.62846921,19.0155035 C3.42937139,19.0155035 4.07841935,19.5498227 4.07841935,20.2014701 C4.07841935,20.677918 3.74933578,21.0838103 3.28742932,21.2558389 C3.17958507,21.3160885 2.74146779,21.8928203 2.62846921,21.9146211 C2.52736522,21.9368183 2.75019048,21.4021028 2.62846921,21.3874368 C1.82756703,21.4021028 1.17851907,20.8677836 1.17851907,20.2014701 C1.17851907,19.5498227 1.82756703,19.0155035 2.62846921,19.0155035" id="Fill-21" fill="#33BEEE"></path>
                        <path d="M23.8404825,15.5100447 C20.6860381,15.5100447 18.2896753,17.4094939 18.2896753,19.870216 C18.2896753,21.4196624 19.5037161,22.8624827 21.4615651,23.437629 C21.6078685,23.6881406 23.2251359,25.7394031 23.4439963,25.8159043 C24.0157294,25.8955765 23.1938135,23.9941454 23.8404825,23.8340082 C26.5984407,23.9941454 28.9948035,22.0950926 28.9948035,19.870216 C28.9948035,17.4094939 26.5984407,15.5100447 23.8404825,15.5100447" id="Fill-23" fill="#FF595F"></path>
                        <path d="M18.7237088,31.6909577 C17.6317857,31.6909577 16.8023365,32.3481545 16.8023365,33.2003698 C16.8023365,33.7362745 17.2226119,34.2361087 17.9002069,34.435091 C17.9509571,34.5218981 18.5107957,35.2318133 18.5865245,35.2583707 C18.7843712,35.2857208 18.5000905,34.6277313 18.7237088,34.5726346 C19.6784476,34.6277313 20.5078968,33.9701382 20.5078968,33.2003698 C20.5078968,32.3481545 19.6784476,31.6909577 18.7237088,31.6909577" id="Fill-25" fill="#FF343C"></path>
                        <path d="M5.27707652,21.8523103 C4.14114347,21.8523103 3.27838944,22.5360644 3.27838944,23.421972 C3.27838944,23.9796776 3.71571375,24.4997271 4.42026978,24.7062407 C4.47300245,24.7966151 5.05544072,25.5350696 5.13434148,25.5628161 C5.34011783,25.5913554 5.04433911,24.9068085 5.27707652,24.8493336 C6.26987804,24.9068085 7.13302856,24.222658 7.13302856,23.421972 C7.13302856,22.5360644 6.26987804,21.8523103 5.27707652,21.8523103" id="Fill-27" fill="#FF9E49"></path>
                        <path d="M18.5413647,22.6407878 C17.6897123,22.6407878 17.0426468,23.1537025 17.0426468,23.8184305 C17.0426468,24.2362142 17.3705409,24.6262513 17.8990571,24.7812356 C17.9387057,24.8490164 18.3756335,25.4031546 18.4343135,25.4237663 C18.5889431,25.4447744 18.3669108,24.9314633 18.5413647,24.8886544 C19.2859659,24.9314633 19.9330314,24.4185486 19.9330314,23.8184305 C19.9330314,23.1537025 19.2859659,22.6407878 18.5413647,22.6407878" id="Fill-29" fill="#FF9E49"></path>
                        <path d="M25.0299412,5.99694347 C22.5324744,5.99694347 20.6685927,7.47860898 20.6685927,9.1679772 C20.6685927,10.6080229 21.6130229,11.7341362 23.04751,12.3390109 C23.2493215,12.3782525 24.8122703,13.8646745 25.0299412,13.9245278 C25.4264274,13.9867593 24.4827902,12.6168728 25.0299412,12.7353901 C27.1309217,12.6168728 28.9948035,11.1348109 28.9948035,9.1679772 C28.9948035,7.47860898 27.1309217,5.99694347 25.0299412,5.99694347" id="Fill-31" fill="#47CA54"></path>
                        <path d="M33.5274737,8.95932318 C31.5700212,8.95932318 30.1093659,10.1207143 30.1093659,11.4446209 C30.1093659,12.5731125 30.8496057,13.455849 31.9740407,13.9299185 C32.1318422,13.9604397 33.3569846,15.1257946 33.5274737,15.1725674 C33.8383189,15.2209257 33.0984756,14.1475307 33.5274737,14.2406799 C35.174081,14.1475307 36.6347363,12.9861396 36.6347363,11.4446209 C36.6347363,10.1207143 35.174081,8.95932318 33.5274737,8.95932318" id="Fill-33" fill="#47CA54"></path>
                        <path d="M11.9458956,20.2667934 C9.84491508,20.2667934 7.98103331,21.7484589 7.98103331,23.4378272 C7.98103331,24.8778729 8.92546351,26.0039862 10.3599507,26.6088609 C10.5617622,26.6481024 12.1243144,28.1345245 12.3423818,28.1943778 C12.7388681,28.2562129 11.7952308,26.8863263 11.9458956,27.0052401 C14.4433624,26.8863263 16.3072441,25.4046608 16.3072441,23.4378272 C16.3072441,21.7484589 14.4433624,20.2667934 11.9458956,20.2667934" id="Fill-35" fill="#33BEEE"></path>
                        <path d="M6.79157462,15.1136654 C8.6320637,15.1136654 9.96346446,16.2251128 9.96346446,17.4919407 C9.96346446,18.5720741 9.2886449,19.4163618 8.37751954,19.870216 C8.12019998,19.8999445 7.00369476,21.0145628 6.79157462,21.0593537 C6.56518099,21.1061264 7.23881109,20.0787115 6.79157462,20.2665952 C5.34717529,20.0787115 4.01617101,18.9672642 4.01617101,17.4919407 C4.01617101,16.2251128 5.34717529,15.1136654 6.79157462,15.1136654" id="Fill-37" fill="#FF595F"></path>
                        <path d="M15.5142717,15.9064239 C17.1359004,15.9064239 18.2896753,16.7955025 18.2896753,17.8883199 C18.2896753,18.6731508 17.7048581,19.348581 16.7037304,19.870216 C16.6922323,19.7354471 15.7248059,20.6273003 15.5142717,20.6629745 C15.3441791,20.7002341 15.9282033,19.8781436 15.5142717,19.870216 C14.2891292,19.8781436 13.1353543,18.989065 13.1353543,17.8883199 C13.1353543,16.7955025 14.2891292,15.9064239 15.5142717,15.9064239" id="Fill-39" fill="#47CA54"></path>
                        <path d="M10.8421969,13.169901 C11.7620449,13.169901 12.4166437,13.6740954 12.4166437,14.2940325 C12.4166437,14.7395627 12.0851812,15.1228614 11.5170165,15.4185603 C11.5102762,15.3420591 10.9615392,15.847839 10.8421969,15.8684507 C10.7458507,15.8894588 11.0773132,15.4233169 10.8421969,15.4185603 C10.1471565,15.4233169 9.49255777,14.9187261 9.49255777,14.2940325 C9.49255777,13.6740954 10.1471565,13.169901 10.8421969,13.169901" id="Fill-41" fill="#33BEEE"></path>
                        <path d="M20.2721064,0.0512552294 C18.5204303,0.0512552294 17.1002166,1.23682546 17.1002166,2.82590974 C17.1002166,3.73996021 17.8198391,4.64093017 18.6861615,5.20418504 C19.1155561,5.29297398 20.25704,6.3453608 20.6685927,6.39332269 C20.7252902,6.44287009 20.0064607,5.34688156 20.2721064,5.20418504 C22.0237826,5.34688156 23.4439963,4.1617077 23.4439963,2.82590974 C23.4439963,1.23682546 22.0237826,0.0512552294 20.2721064,0.0512552294" id="Fill-43" fill="#FF343C"></path>
                        <path d="M23.04751,26.6088609 C24.5803258,26.6088609 25.8229137,27.6457889 25.8229137,28.9871362 C25.8229137,29.8365768 25.1932935,30.6245787 24.2369687,30.9690323 C24.1025599,31.0756583 23.0605941,32.1165501 23.04751,32.1581699 C22.6510238,32.2013752 23.2802475,31.2425339 23.04751,31.3654115 C21.5146943,31.2425339 20.2721064,30.2052095 20.2721064,28.9871362 C20.2721064,27.6457889 21.5146943,26.6088609 23.04751,26.6088609" id="Fill-45" fill="#FF9E49"></path>
                        <path d="M16.7037304,8.77159798 C14.7327973,8.77159798 13.1353543,10.0312911 13.1353543,11.5462525 C13.1353543,12.6909957 13.9449792,13.6478551 15.1177854,13.9245278 C15.347351,14.1956512 16.6870779,15.4593081 17.1002166,15.5100447 C17.2136117,15.5627631 16.4047798,14.3985973 16.7037304,14.320907 C18.6746634,14.3985973 20.2721064,13.1389042 20.2721064,11.5462525 C20.2721064,10.0312911 18.6746634,8.77159798 16.7037304,8.77159798" id="Fill-47" fill="#FF9E49"></path>
                        <path d="M10.3909163,9.18597281 C9.45679471,9.18597281 8.69950601,9.78291991 8.69950601,10.5007627 C8.69950601,11.0438022 9.08330468,11.49726 9.63917837,11.6280652 C9.74821209,11.756492 10.3829865,12.3558174 10.5788507,12.3796002 C10.6323764,12.404572 10.2493707,11.8528122 10.3909163,11.8159489 C11.3250378,11.8528122 12.0823265,11.2558651 12.0823265,10.5007627 C12.0823265,9.78291991 11.3250378,9.18597281 10.3909163,9.18597281" id="Fill-49" fill="#47CA54"></path>
                        <path d="M2.03373986,13.9245278 C0.939041384,13.9245278 0.0513087158,14.6245335 0.0513087158,15.4660466 C0.0513087158,16.1022352 0.5009241,16.6337797 1.15274746,16.7871785 C1.28041603,16.938199 2.02462068,17.6401866 2.25418621,17.6679331 C2.31683103,17.6976615 1.86761213,17.0507707 2.03373986,17.0075653 C3.12883483,17.0507707 4.01617101,16.350765 4.01617101,15.4660466 C4.01617101,14.6245335 3.12883483,13.9245278 2.03373986,13.9245278" id="Fill-51" fill="#47CA54"></path>
                        <path d="M27.8053448,23.4378272 C29.4269735,23.4378272 30.5807484,24.3269057 30.5807484,25.4197232 C30.5807484,26.2041577 29.9959312,26.8799843 28.9948035,27.4016193 C28.9829089,27.266454 28.015879,28.1583072 27.8053448,28.1943778 C27.6352522,28.2316374 28.2192764,27.4095469 27.8053448,27.4016193 C26.5802024,27.4095469 25.4264274,26.5204683 25.4264274,25.4197232 C25.4264274,24.3269057 26.5802024,23.4378272 27.8053448,23.4378272" id="Fill-53" fill="#33BEEE"></path>
                        <path d="M27.0123723,1.63677209 C26.0060903,1.63677209 25.0299412,2.45172776 25.0299412,3.61866817 C25.0299412,4.17280632 25.524756,4.79195065 26.2193999,5.20418504 C26.4370708,5.2945595 27.2003068,5.96404399 27.4088586,5.99694347 C27.5222536,6.03103208 27.0278353,5.27751519 27.0123723,5.20418504 C28.4151406,5.27751519 29.3912897,4.46255952 29.3912897,3.61866817 C29.3912897,2.45172776 28.4151406,1.63677209 27.0123723,1.63677209" id="Fill-55" fill="#FF9E49"></path>
                        <path d="M31.3737209,4.41142661 C32.4688158,4.41142661 33.356152,5.15225936 33.356152,5.99694347 C33.356152,6.71676813 32.9065366,7.28002299 32.1666933,7.58246033 C32.1274412,7.60227929 31.3828401,8.34549032 31.3737209,8.37521877 C31.0906297,8.40653272 31.5398486,7.72158944 31.3737209,7.58246033 C30.2786259,7.72158944 29.3912897,6.9803603 29.3912897,5.99694347 C29.3912897,5.15225936 30.2786259,4.41142661 31.3737209,4.41142661" id="Fill-57" fill="#33BEEE"></path>
                        <path d="M21.4615651,12.3390109 C22.0297299,12.3390109 22.6510238,12.8578713 22.6510238,13.5281486 C22.6510238,13.9530671 22.3199578,14.3847241 21.8580514,14.7172862 C21.5468097,14.8750451 21.2700623,15.0926573 21.0650789,15.1136654 C21.0650789,15.1354663 21.363633,14.8694958 21.4615651,14.7172862 C20.4969141,14.6558474 19.8756202,14.1373834 19.8756202,13.5281486 C19.8756202,12.8578713 20.4969141,12.3390109 21.4615651,12.3390109" id="Fill-59" fill="#33BEEE"></path>
                        <path d="M32.5631796,17.0955615 C33.5694616,17.0955615 34.5456107,17.9105172 34.5456107,19.0774576 C34.5456107,19.6315957 34.0507959,20.2507401 33.356152,20.6629745 C33.1939892,20.6051031 32.3752451,21.4228334 32.1666933,21.4557329 C32.0532983,21.4898215 32.5477166,20.7363046 32.5631796,20.6629745 C31.1604113,20.7363046 30.1842622,19.9213489 30.1842622,19.0774576 C30.1842622,17.9105172 31.1604113,17.0955615 32.5631796,17.0955615" id="Fill-61" fill="#FF343C"></path>
                    </g>
                </g>
            </g>
        </g>
    </g>
</svg>